<?xml version="1.0" encoding="UTF-8"?>
<svg width="64" height="64" viewBox="0 0 64 64" xmlns="http://www.w3.org/2000/svg">
  <!-- 背景圆形 -->
  <circle cx="32" cy="32" r="30" fill="#2563eb" stroke="#1d4ed8" stroke-width="2"/>
  
  <!-- 扫码枪主体 -->
  <rect x="20" y="25" width="24" height="8" rx="2" fill="#ffffff"/>
  
  <!-- 扫码枪手柄 -->
  <rect x="18" y="33" width="8" height="12" rx="2" fill="#ffffff"/>
  
  <!-- 扫码枪触发器 -->
  <rect x="22" y="37" width="3" height="4" rx="1" fill="#2563eb"/>
  
  <!-- 扫描线 -->
  <line x1="44" y1="29" x2="52" y2="29" stroke="#ef4444" stroke-width="2" opacity="0.8"/>
  <line x1="44" y1="32" x2="50" y2="32" stroke="#ef4444" stroke-width="1.5" opacity="0.6"/>
  <line x1="44" y1="35" x2="48" y2="35" stroke="#ef4444" stroke-width="1" opacity="0.4"/>
  
  <!-- 条形码图案 -->
  <g transform="translate(12, 48)">
    <rect x="0" y="0" width="1" height="8" fill="#374151"/>
    <rect x="2" y="0" width="2" height="8" fill="#374151"/>
    <rect x="5" y="0" width="1" height="8" fill="#374151"/>
    <rect x="7" y="0" width="3" height="8" fill="#374151"/>
    <rect x="11" y="0" width="1" height="8" fill="#374151"/>
    <rect x="13" y="0" width="2" height="8" fill="#374151"/>
    <rect x="16" y="0" width="1" height="8" fill="#374151"/>
    <rect x="18" y="0" width="1" height="8" fill="#374151"/>
    <rect x="20" y="0" width="2" height="8" fill="#374151"/>
    <rect x="23" y="0" width="1" height="8" fill="#374151"/>
    <rect x="25" y="0" width="3" height="8" fill="#374151"/>
    <rect x="29" y="0" width="1" height="8" fill="#374151"/>
    <rect x="31" y="0" width="2" height="8" fill="#374151"/>
    <rect x="34" y="0" width="1" height="8" fill="#374151"/>
    <rect x="36" y="0" width="1" height="8" fill="#374151"/>
    <rect x="38" y="0" width="2" height="8" fill="#374151"/>
  </g>
  
  <!-- 多设备指示器 -->
  <circle cx="48" cy="16" r="3" fill="#10b981" stroke="#ffffff" stroke-width="1"/>
  <circle cx="54" cy="20" r="2" fill="#10b981" stroke="#ffffff" stroke-width="1"/>
  <circle cx="42" cy="12" r="2" fill="#10b981" stroke="#ffffff" stroke-width="1"/>
</svg>